<svg width="309" height="309" viewBox="0 0 309 309" fill="none" xmlns="http://www.w3.org/2000/svg">
<path d="M288.002 168.573C286.153 174.839 287.043 179.816 287.043 179.816C284.333 194.318 267.484 185.848 267.484 185.848C265.585 195.269 256.045 195.091 251.373 194.408C255.16 197.226 262.031 203.847 256.714 211.852C256.714 211.852 274.618 217.777 266.276 229.948C266.276 229.948 262.129 232.836 259.007 238.575C259.007 238.575 255.13 244.327 255.874 255.858L255.857 255.874C244.326 255.132 238.574 259.008 238.574 259.008C232.835 262.13 229.946 266.278 229.946 266.278C217.776 274.619 211.849 256.713 211.849 256.713C203.846 262.032 197.227 255.161 194.406 251.375C195.089 256.046 195.266 265.586 185.847 267.484C185.847 267.484 194.317 284.335 179.814 287.044C179.814 287.044 174.838 286.154 168.572 288.003C168.572 288.003 161.764 289.329 154.135 298.008H154.114C146.484 289.33 139.676 288.003 139.676 288.003C133.411 286.154 128.434 287.044 128.434 287.044C113.931 284.335 122.401 267.484 122.401 267.484C112.982 265.586 113.159 256.046 113.842 251.375C111.022 255.161 104.402 262.032 96.3985 256.713C96.3985 256.713 90.4734 274.619 78.3017 266.277C78.3017 266.277 75.4134 262.13 69.6748 259.006C69.6748 259.006 63.9223 255.13 52.3912 255.874L52.3758 255.857C53.1181 244.327 49.2419 238.575 49.2419 238.575C46.1199 232.836 41.9708 229.947 41.9708 229.947C33.6311 217.776 51.5353 211.85 51.5353 211.85C46.218 203.847 53.0884 197.226 56.8747 194.407C52.2032 195.088 42.6644 195.266 40.765 185.848C40.765 185.848 23.9151 194.318 21.2061 179.814C21.2061 179.814 22.0964 174.839 20.2459 168.573C20.2459 168.573 18.9199 161.764 10.2416 154.135V154.114C18.9199 146.485 20.2459 139.677 20.2459 139.677C22.0964 133.411 21.2061 128.435 21.2061 128.435C23.9151 113.932 40.765 122.401 40.765 122.401C42.6644 112.982 52.2027 113.16 56.8742 113.843C53.0884 111.022 46.2185 104.402 51.5358 96.3996C51.5358 96.3996 33.6311 90.4735 41.9718 78.3022C41.9718 78.3022 46.1198 75.4144 49.2424 69.6753C49.2424 69.6753 53.1187 63.9228 52.3763 52.3907L52.3912 52.3763C63.9234 53.1182 69.6748 49.2419 69.6748 49.2419C75.4144 46.1199 78.3027 41.9714 78.3027 41.9714C90.4734 33.6317 96.3995 51.5353 96.3995 51.5353C104.403 46.2185 111.022 53.0889 113.842 56.8752C113.16 52.2032 112.982 42.6644 122.401 40.7651C122.401 40.7651 113.932 23.9151 128.435 21.2061C128.435 21.2061 133.411 22.0969 139.677 20.2464C139.677 20.2464 146.485 18.9204 154.114 10.2411H154.135C161.764 18.9204 168.572 20.2464 168.572 20.2464C174.838 22.0969 179.814 21.2061 179.814 21.2061C194.318 23.9151 185.847 40.7651 185.847 40.7651C195.268 42.6644 195.09 52.2047 194.406 56.8758C197.227 53.0894 203.846 46.2185 211.85 51.5358C211.85 51.5358 217.777 33.6316 229.947 41.9724C229.947 41.9724 232.835 46.1199 238.574 49.2435C238.574 49.2435 244.326 53.1187 255.859 52.3768L255.874 52.3907C255.131 63.9234 259.007 69.6753 259.007 69.6753C262.129 75.4139 266.277 78.3032 266.277 78.3032C274.618 90.4735 256.714 96.3996 256.714 96.3996C262.031 104.403 255.16 111.022 251.373 113.844C256.046 113.16 265.585 112.982 267.484 122.401C267.484 122.401 284.333 113.932 287.043 128.435C287.043 128.435 286.153 133.411 288.002 139.677C288.002 139.677 289.328 146.486 298.007 154.115V154.136C289.33 161.765 288.002 168.573 288.002 168.573ZM154.125 2.57492e-05C69.0054 2.57492e-05 0 69.0049 0 154.125C0 239.247 69.0054 308.25 154.125 308.25C239.248 308.25 308.25 239.247 308.25 154.125C308.25 69.0049 239.248 2.57492e-05 154.125 2.57492e-05Z" fill="#3B614B"/>
<path d="M226.229 129.248C223.878 130.223 221.181 129.106 220.206 126.753C219.232 124.4 220.349 121.703 222.703 120.728C225.054 119.754 227.75 120.869 228.725 123.223C229.7 125.576 228.583 128.273 226.229 129.248ZM226.232 179.001C228.583 179.974 229.701 182.67 228.726 185.023C227.753 187.376 225.054 188.493 222.702 187.519C220.349 186.545 219.231 183.848 220.206 181.494C221.182 179.143 223.878 178.026 226.232 179.001ZM154.125 213.829C121.152 213.829 94.4215 187.099 94.4215 154.125C94.4215 121.152 121.152 94.4212 154.125 94.4212C187.098 94.4212 213.829 121.152 213.829 154.125C213.829 187.099 187.098 213.829 154.125 213.829ZM185.026 228.724C182.675 229.7 179.976 228.582 179.002 226.228C178.028 223.875 179.145 221.178 181.497 220.205C183.852 219.231 186.547 220.346 187.522 222.7C188.496 225.053 187.38 227.749 185.026 228.724ZM129.25 226.229C128.276 228.581 125.579 229.699 123.226 228.724C120.874 227.75 119.755 225.053 120.731 222.699C121.706 220.346 124.403 219.23 126.755 220.205C129.108 221.18 130.225 223.875 129.25 226.229ZM123.226 79.525C125.578 78.5499 128.276 79.6673 129.25 82.0203C130.225 84.3738 129.107 87.0705 126.754 88.0446C124.401 89.0197 121.705 87.9028 120.731 85.5498C119.755 83.1968 120.872 80.4996 123.226 79.525ZM179.002 82.0198C179.976 79.6673 182.671 78.5494 185.024 79.524C187.376 80.4986 188.496 83.1953 187.521 85.5488C186.547 87.9017 183.849 89.0186 181.496 88.044C179.145 87.0674 178.028 84.3733 179.002 82.0198ZM88.0454 126.754C87.0708 129.107 84.3751 130.223 82.0227 129.249C79.6692 128.275 78.5518 125.578 79.5264 123.225C80.5009 120.872 83.1981 119.754 85.5516 120.729C87.9041 121.703 89.0215 124.401 88.0454 126.754ZM85.5516 187.52C83.1986 188.495 80.5009 187.378 79.5258 185.024C78.5518 182.672 79.6692 179.974 82.0232 179C84.3751 178.026 87.0723 179.143 88.0464 181.497C89.0205 183.849 87.9041 186.545 85.5516 187.52ZM232.671 121.604C232.671 121.604 236.003 112.856 232.978 107.96C226.612 97.6517 218.356 103.616 218.356 103.616L219.355 105.791L220.104 107.416C222.179 111.812 217.811 115.858 212.532 114.774C208.239 113.896 207.043 110.044 206.76 107.774C206.499 105.715 206.563 103.35 207.255 101.007C204.915 101.697 202.554 101.76 200.498 101.5C198.23 101.215 194.377 100.021 193.499 95.7251C192.417 90.4448 196.46 86.0841 200.859 88.156L202.483 88.9066L204.656 89.9069C204.656 89.9069 210.62 81.6504 200.314 75.281C195.417 72.2565 186.672 75.5887 186.672 75.5887C186.672 75.5887 182.841 67.0476 177.24 65.7226C165.447 62.9376 163.828 72.9927 163.828 72.9927L166.073 73.8224L167.751 74.4425C172.327 76.0844 172.099 82.0316 167.601 84.999C163.943 87.4147 160.375 85.5349 158.569 84.1303C156.929 82.8603 155.302 81.1423 154.135 78.9974C152.968 81.1387 151.343 82.8526 149.706 84.1231C147.901 85.5251 144.332 87.4054 140.673 84.9893C136.176 82.0198 135.949 76.0737 140.526 74.4328L142.204 73.8127L144.449 72.985C144.449 72.985 142.829 62.9268 131.037 65.7124C125.434 67.0378 121.607 75.58 121.607 75.58C121.607 75.58 112.858 72.2478 107.96 75.2727C97.6545 81.6396 103.62 89.8961 103.62 89.8961L105.792 88.8963L107.418 88.1463C111.813 86.0707 115.858 90.4361 114.776 95.7164C113.899 100.011 110.046 101.204 107.776 101.491C105.717 101.75 103.353 101.686 101.01 100.994C101.699 103.333 101.762 105.693 101.503 107.749C101.217 110.019 100.023 113.872 95.7269 114.75C90.4482 115.831 86.0844 111.785 88.1589 107.39L88.9069 105.764L89.9087 103.591C89.9087 103.591 81.6512 97.625 75.2833 107.933C72.2568 112.832 75.5921 121.578 75.5921 121.578C75.5921 121.578 67.0499 125.408 65.726 131.01C62.941 142.801 72.9961 144.421 72.9961 144.421L73.8258 142.178L74.4449 140.497C76.0863 135.921 82.0329 136.149 85.0009 140.647C87.4176 144.305 85.5362 147.872 84.1342 149.68C82.8616 151.319 81.1436 152.946 78.9992 154.113C81.1395 155.28 82.8534 156.903 84.1234 158.542C85.5254 160.349 87.4063 163.918 84.9906 167.576C82.0216 172.073 76.075 172.3 74.4341 167.723L73.814 166.045L72.9863 163.8C72.9863 163.8 62.9281 165.42 65.7137 177.212C67.0392 182.817 75.5813 186.642 75.5813 186.642C75.5813 186.642 72.2491 195.391 75.2735 200.288C81.6404 210.594 89.8979 204.629 89.8979 204.629L88.8977 202.459L88.1476 200.83C86.071 196.435 90.4374 192.39 95.7172 193.471C100.011 194.351 101.204 198.203 101.491 200.471C101.751 202.531 101.686 204.896 100.995 207.239C103.334 206.55 105.695 206.489 107.751 206.748C110.019 207.032 113.873 208.226 114.752 212.523C115.832 217.8 111.787 222.166 107.391 220.089L105.764 219.343L103.592 218.34C103.592 218.34 97.6263 226.599 107.934 232.967C112.834 235.993 121.58 232.659 121.58 232.659C121.58 232.659 125.41 241.2 131.012 242.523C142.801 245.311 144.422 235.252 144.422 235.252L142.179 234.425L140.498 233.805C135.923 232.164 136.148 226.216 140.647 223.248C144.305 220.831 147.873 222.713 149.68 224.114C151.32 225.387 152.947 227.107 154.115 229.252C155.282 227.11 156.907 225.396 158.545 224.126C160.35 222.724 163.92 220.844 167.578 223.26C172.074 226.228 172.3 232.176 167.724 233.816L166.046 234.436L163.8 235.263C163.8 235.263 165.422 245.321 177.214 242.535C182.818 241.212 186.644 232.67 186.644 232.67C186.644 232.67 195.393 236.001 200.289 232.977C210.595 226.61 204.632 218.353 204.632 218.353L202.458 219.352L200.832 220.102C196.437 222.18 192.392 217.811 193.474 212.531C194.351 208.238 198.205 207.044 200.475 206.758C202.534 206.498 204.899 206.562 207.241 207.255C206.552 204.915 206.489 202.554 206.749 200.498C207.034 198.229 208.226 194.377 212.524 193.499C217.804 192.416 222.167 196.46 220.093 200.858L219.344 202.482L218.342 204.656C218.342 204.656 226.598 210.621 232.965 200.313C235.994 195.416 232.66 186.672 232.66 186.672C232.66 186.672 241.202 182.841 242.525 177.238C245.313 165.448 235.257 163.828 235.257 163.828L234.427 166.072L233.808 167.749C232.165 172.326 226.217 172.098 223.25 167.6C220.833 163.943 222.714 160.374 224.117 158.567C225.388 156.928 227.108 155.301 229.253 154.134C227.113 152.967 225.397 151.342 224.128 149.704C222.725 147.9 220.845 144.33 223.261 140.671C226.229 136.173 232.175 135.949 233.817 140.523L234.437 142.204L235.267 144.447C235.267 144.447 245.322 142.828 242.536 131.035C241.211 125.432 232.671 121.604 232.671 121.604Z" fill="#3B614B"/>
<path d="M150.203 154.125C150.203 140.942 139.478 130.217 126.295 130.217C113.552 130.217 103.063 140.177 102.423 152.792L102.407 153.303C102.399 153.578 102.388 153.85 102.388 154.125C102.388 154.4 102.399 154.673 102.407 154.947L102.423 155.458C103.14 183.721 125.85 205.861 154.125 205.861C172.83 205.861 189.099 196.173 198.178 181.431C193.423 184.258 187.871 185.875 181.954 185.875C164.446 185.875 150.203 171.633 150.203 154.125Z" fill="#3B614B"/>
<path d="M154.125 102.387C135.421 102.387 119.152 112.075 110.074 126.816C114.828 123.99 120.378 122.374 126.295 122.374C143.803 122.374 158.047 136.617 158.047 154.125C158.047 167.307 168.771 178.032 181.954 178.032C194.698 178.032 205.186 168.073 205.828 155.463L205.842 154.932C205.852 154.663 205.861 154.396 205.861 154.125C205.861 153.854 205.852 153.586 205.842 153.317L205.828 152.792C205.112 124.528 182.401 102.387 154.125 102.387Z" fill="#3B614B"/>
<path d="M243.219 141.591C240.482 145.683 235.797 146.48 235.598 146.512L233.903 146.785L231.848 141.229C231.241 139.538 229.905 139.285 229.163 139.285C227.632 139.285 226.04 140.257 225.006 141.823C223.352 144.328 224.514 146.793 225.781 148.423C226.661 149.557 228.15 151.151 230.255 152.299L233.625 154.137L230.252 155.972C228.142 157.119 226.65 158.713 225.769 159.849C224.504 161.479 223.343 163.947 224.995 166.45C226.029 168.015 227.621 168.988 229.153 168.988C229.895 168.988 231.232 168.735 231.845 167.025L233.893 161.489L235.589 161.763C235.788 161.795 240.474 162.592 243.211 166.685C245.151 169.586 245.606 173.299 244.56 177.718C243.392 182.663 238.048 186.176 235.211 187.729C236.12 190.831 237.418 197.089 234.746 201.411C231.144 207.24 226.862 208.464 223.903 208.464C220.15 208.464 217.415 206.568 217.116 206.351L215.722 205.343L218.201 199.966C218.661 198.991 218.632 198.047 218.117 197.236C217.404 196.111 215.921 195.413 214.247 195.413C213.819 195.413 213.381 195.458 212.943 195.547C210.003 196.148 209.08 198.713 208.824 200.761C208.644 202.186 208.572 204.367 209.247 206.664L210.331 210.351L206.647 209.261C205.41 208.895 204.083 208.708 202.704 208.708C202.052 208.708 201.39 208.75 200.737 208.833C198.689 209.091 196.123 210.015 195.522 212.95C195.178 214.633 195.514 216.303 196.421 217.415C197.012 218.139 197.783 218.538 198.593 218.538C199.026 218.538 199.478 218.428 199.957 218.202L205.321 215.735L206.328 217.128C206.444 217.291 209.194 221.169 208.236 225.998C207.557 229.422 205.253 232.368 201.388 234.757C199.69 235.805 197.528 236.337 194.961 236.337C192.168 236.337 189.429 235.707 187.706 235.21C186.158 238.047 182.646 243.401 177.694 244.57C176.168 244.931 174.705 245.114 173.346 245.114H173.344C165.375 245.114 162.266 238.888 161.736 235.596L161.462 233.896L167.018 231.847C168.441 231.338 168.848 230.321 168.94 229.559C169.135 227.93 168.149 226.143 166.426 225.006C165.593 224.455 164.751 224.188 163.853 224.188C162.131 224.188 160.591 225.184 159.827 225.779C158.691 226.66 157.097 228.15 155.951 230.253L154.113 233.624L152.278 230.252C151.13 228.143 149.534 226.648 148.399 225.767C147.633 225.173 146.09 224.177 144.37 224.177C143.472 224.177 142.631 224.444 141.799 224.993C140.075 226.13 139.087 227.918 139.283 229.548C139.375 230.31 139.782 231.327 141.221 231.843L146.76 233.886L146.486 235.584C145.955 238.876 142.847 245.101 134.88 245.103C133.523 245.103 132.059 244.919 130.531 244.559C125.58 243.389 122.068 238.037 120.519 235.201C118.795 235.696 116.058 236.328 113.265 236.328C110.698 236.328 108.535 235.795 106.835 234.746C102.97 232.358 100.667 229.411 99.9865 225.987C99.0283 221.157 101.779 217.277 101.897 217.116L102.905 215.719L108.285 218.198C108.744 218.416 109.198 218.526 109.631 218.526C110.441 218.526 111.213 218.127 111.804 217.402C112.711 216.29 113.047 214.624 112.702 212.942C112.101 210.001 109.536 209.079 107.489 208.822C106.833 208.739 106.169 208.698 105.517 208.698C104.141 208.698 102.819 208.882 101.586 209.244L97.9022 210.329L98.9893 206.646C99.669 204.344 99.5965 202.16 99.4157 200.734C99.1568 198.687 98.2331 196.121 95.2975 195.521C94.8613 195.431 94.4241 195.385 93.9967 195.385C92.3198 195.385 90.8345 196.085 90.1209 197.211C89.6 198.033 89.5728 198.95 90.047 199.955L92.5176 205.316L91.1222 206.324C90.8227 206.541 88.0886 208.437 84.3341 208.437C81.3764 208.437 77.0943 207.214 73.4939 201.387C70.8245 197.064 72.1207 190.804 73.0305 187.698C70.1916 186.148 64.8486 182.639 63.6782 177.693C62.6343 173.272 63.0885 169.559 65.0289 166.658C67.7672 162.564 72.4546 161.767 72.6529 161.735L74.3529 161.462L76.4028 167.017C77.0095 168.71 78.3453 168.962 79.0871 168.962C80.6186 168.962 82.2118 167.99 83.2454 166.423C84.8971 163.922 83.7355 161.454 82.4702 159.823C81.5906 158.688 80.1013 157.095 77.998 155.948L74.6268 154.111L77.9995 152.276C80.1059 151.129 81.5994 149.534 82.482 148.397C83.7468 146.767 84.9084 144.299 83.2557 141.798C82.2226 140.232 80.6284 139.258 79.0969 139.258C78.355 139.258 77.0198 139.511 76.4069 141.22L74.3617 146.76L72.6632 146.486C72.4654 146.454 67.779 145.657 65.0417 141.564C63.1003 138.663 62.6461 134.95 63.6906 130.53C64.8588 125.584 70.2023 122.074 73.0413 120.522C72.1299 117.418 70.8327 111.158 73.5037 106.834C77.1046 101.005 81.3872 99.7822 84.3459 99.7822C88.1004 99.7822 90.8345 101.679 91.1335 101.896L92.5284 102.904L90.0495 108.283C89.5902 109.256 89.619 110.199 90.1333 111.01C90.8469 112.136 92.3316 112.836 94.0075 112.836C94.4349 112.836 94.8716 112.79 95.3088 112.7C98.2464 112.1 99.1696 109.535 99.427 107.486C99.6068 106.061 99.6798 103.879 99.0037 101.585L97.9186 97.9004L101.602 98.9885C102.842 99.3538 104.171 99.5397 105.551 99.5397C106.201 99.5397 106.862 99.4981 107.513 99.4159C109.561 99.157 112.127 98.2317 112.727 95.2967C113.072 93.6136 112.737 91.945 111.829 90.8327C111.239 90.1088 110.467 89.7097 109.657 89.7097C109.224 89.7097 108.771 89.8201 108.294 90.0451L102.931 92.5152L101.924 91.1209C101.806 90.9581 99.0561 87.0798 100.015 82.25C100.694 78.8264 102.998 75.8805 106.861 73.4931C108.56 72.4441 110.723 71.9118 113.291 71.9118C116.083 71.9118 118.821 72.5422 120.545 73.0385C122.093 70.2015 125.604 64.8483 130.557 63.6769C132.084 63.3163 133.546 63.1334 134.903 63.1334C142.876 63.1334 145.984 69.3595 146.514 72.6526L146.788 74.3516L141.232 76.4015C139.809 76.9116 139.402 77.9273 139.309 78.6892C139.114 80.3183 140.101 82.1062 141.825 83.2436C142.657 83.7938 143.499 84.061 144.397 84.061C146.12 84.061 147.659 83.0648 148.424 82.4704C149.56 81.5888 151.154 80.0974 152.299 77.9967L154.137 74.6234L155.972 77.9977C157.119 80.1056 158.714 81.597 159.853 82.4791C160.617 83.0735 162.156 84.0702 163.877 84.0702C164.775 84.0702 165.616 83.8026 166.449 83.2534C168.173 82.1154 169.16 80.3286 168.966 78.7005C168.874 77.9371 168.466 76.9209 167.025 76.4035L161.489 74.3583L161.763 72.6598C162.293 69.3688 165.402 63.1437 173.373 63.1437C174.73 63.1437 176.193 63.326 177.72 63.6872C182.671 64.858 186.184 70.2113 187.733 73.0477C189.457 72.5509 192.194 71.9205 194.986 71.9205C197.552 71.9205 199.714 72.4523 201.413 73.5019C205.277 75.8903 207.581 78.8372 208.26 82.2613C209.219 87.0911 206.469 90.9689 206.352 91.1317L205.344 92.526L199.968 90.0477C199.507 89.8309 199.053 89.721 198.619 89.721C197.809 89.721 197.036 90.1201 196.445 90.8445C195.539 91.9553 195.203 93.6224 195.548 95.3059C196.149 98.2446 198.713 99.1678 200.761 99.4242C201.416 99.5074 202.078 99.5495 202.73 99.5495C204.106 99.5495 205.43 99.3651 206.664 99.0008L210.348 97.9153L209.26 101.6C208.58 103.9 208.653 106.084 208.834 107.514C209.09 109.559 210.013 112.124 212.953 112.725C213.39 112.815 213.827 112.86 214.255 112.86C215.931 112.86 217.415 112.161 218.129 111.035C218.643 110.224 218.671 109.281 218.204 108.291L215.737 102.927L217.13 101.921C217.43 101.704 220.164 99.8084 223.917 99.8084C226.876 99.8084 231.157 101.032 234.757 106.86C237.428 111.183 236.131 117.443 235.22 120.548C238.059 122.099 243.402 125.608 244.571 130.554C245.616 134.976 245.161 138.69 243.219 141.591ZM248.999 129.507C247.018 125.358 243.656 122.104 239.532 120.346L237.647 119.542L238.412 117.643C240.083 113.478 240.16 108.801 238.627 104.467C236.428 98.2338 229.229 94.4742 226.642 93.552C225.419 93.1168 223.195 92.6087 220.954 92.6087C219.726 92.6087 218.677 92.768 217.915 93.0706L213.397 94.8656L215.202 90.3503C216.152 87.9752 215.476 83.7358 214.72 81.6181C213.798 79.0298 210.038 71.8301 203.804 69.6308C201.74 68.9002 199.606 68.5308 197.459 68.5308C195.101 68.5308 192.804 68.9732 190.631 69.846L188.732 70.6095L187.928 68.7266C186.167 64.6022 182.914 61.2392 178.766 59.2576C176.903 58.3668 174.716 57.9147 172.271 57.9147C168.113 57.9147 164.215 59.2361 162.57 60.017C160.545 60.9777 157.075 63.4945 156.061 65.8454L154.134 70.3094L152.218 65.8419C151.21 63.4904 147.735 60.9689 145.706 60.0056C144.059 59.2258 140.162 57.9055 136.008 57.9055C133.562 57.9055 131.375 58.3576 129.509 59.2505C125.361 61.2305 122.107 64.5924 120.347 68.7163L119.543 70.5987L117.645 69.8363C115.471 68.9634 113.173 68.5216 110.815 68.5216C108.668 68.5216 106.533 68.8915 104.469 69.6205C98.2372 71.8204 94.4775 79.0211 93.5543 81.6099C92.8007 83.7214 92.1266 87.9552 93.0729 90.3333L94.8706 94.8538L90.3526 93.0475C89.5918 92.7428 88.5386 92.582 87.3066 92.582C85.0615 92.582 82.8406 93.0907 81.6204 93.5258C79.0316 94.4506 71.832 98.2127 69.6331 104.443C68.1011 108.776 68.1771 113.455 69.8489 117.617L70.6113 119.515L68.7294 120.319C64.605 122.082 61.242 125.336 59.259 129.484C56.4092 135.444 58.8413 143.196 60.0193 145.679C60.979 147.705 63.4964 151.173 65.8468 152.187L70.3107 154.111L65.8442 156.029C63.4912 157.039 60.9708 160.513 60.008 162.541C58.8315 165.026 56.401 172.779 59.2513 178.74C61.2323 182.888 64.5937 186.142 68.7176 187.902L70.6005 188.705L69.8381 190.603C68.1679 194.766 68.0903 199.445 69.6218 203.781C71.8227 210.013 79.0224 213.773 81.6122 214.694C82.8313 215.131 85.0507 215.639 87.2953 215.639C88.5232 215.639 89.5748 215.478 90.3347 215.175L94.8536 213.382L93.0483 217.895C92.0984 220.273 92.7724 224.513 93.5271 226.628C94.4518 229.217 98.214 236.416 104.444 238.616C106.508 239.345 108.642 239.715 110.789 239.715C113.147 239.715 115.444 239.273 117.617 238.4L119.516 237.638L120.32 239.518C122.083 243.642 125.337 247.007 129.485 248.988C131.348 249.88 133.532 250.333 135.977 250.333C140.138 250.333 144.033 249.009 145.681 248.227C147.706 247.269 151.175 244.756 152.189 242.402L154.115 237.933L156.031 242.405C157.039 244.757 160.515 247.279 162.545 248.243C164.19 249.022 168.085 250.342 172.24 250.342C174.687 250.342 176.874 249.89 178.741 248.996C182.889 247.017 186.143 243.655 187.903 239.531L188.707 237.65L190.606 238.413C192.778 239.285 195.076 239.728 197.434 239.728C199.582 239.728 201.716 239.357 203.781 238.627C210.017 236.426 213.775 229.228 214.697 226.638C215.451 224.526 216.124 220.293 215.179 217.914L213.381 213.391L217.899 215.2C218.661 215.505 219.712 215.666 220.944 215.666H220.945C223.186 215.666 225.41 215.156 226.631 214.72C229.219 213.797 236.417 210.036 238.618 203.802C240.15 199.471 240.074 194.795 238.404 190.631L237.642 188.733L239.522 187.93C243.648 186.165 247.011 182.912 248.991 178.764C251.843 172.799 249.411 165.053 248.231 162.57C247.271 160.544 244.757 157.074 242.401 156.058L237.937 154.132L242.407 152.217C244.759 151.207 247.279 147.733 248.241 145.703C249.419 143.22 251.851 135.471 248.999 129.507Z" fill="#3B614B"/>
<path d="M154.123 40.3696C158.333 40.3696 161.746 36.9594 161.746 32.7487C161.746 28.538 154.125 17.9352 154.125 17.9352C154.125 17.9352 146.502 28.538 146.504 32.7487C146.504 36.9594 149.915 40.3696 154.123 40.3696Z" fill="#3B614B"/>
<path d="M73.6865 73.6888C76.6637 70.7116 76.6652 65.887 73.6881 62.9098C70.7104 59.9321 57.824 57.8237 57.824 57.8237C57.824 57.8237 59.9319 70.7116 62.9101 73.6878C65.8873 76.6644 70.7104 76.6644 73.6865 73.6888Z" fill="#3B614B"/>
<path d="M32.748 146.504C28.5379 146.504 17.9346 154.125 17.9346 154.125C17.9346 154.125 28.5379 161.747 32.748 161.746C36.9587 161.746 40.369 158.335 40.369 154.126C40.369 149.916 36.9587 146.504 32.748 146.504Z" fill="#3B614B"/>
<path d="M62.9093 234.562C59.9316 237.539 57.8237 250.425 57.8237 250.425C57.8237 250.425 70.7111 248.318 73.6873 245.34C76.6645 242.363 76.664 237.539 73.6883 234.563C70.7111 231.586 65.887 231.585 62.9093 234.562Z" fill="#3B614B"/>
<path d="M154.125 267.881C149.915 267.881 146.503 271.291 146.503 275.501C146.503 279.712 154.124 290.315 154.124 290.315C154.124 290.315 161.746 279.712 161.745 275.501C161.745 271.291 158.334 267.881 154.125 267.881Z" fill="#3B614B"/>
<path d="M234.563 234.562C231.586 237.539 231.584 242.364 234.561 245.341C237.539 248.318 250.425 250.426 250.425 250.426C250.425 250.426 248.318 237.539 245.339 234.563C242.362 231.586 237.539 231.586 234.563 234.562Z" fill="#3B614B"/>
<path d="M267.879 154.124C267.879 158.334 271.29 161.747 275.5 161.747C279.711 161.747 290.314 154.126 290.314 154.126C290.314 154.126 279.711 146.503 275.5 146.505C271.29 146.505 267.879 149.915 267.879 154.124Z" fill="#3B614B"/>
<path d="M234.561 73.6872C237.538 76.6644 242.363 76.666 245.34 73.6888C248.317 70.7111 250.426 57.8252 250.426 57.8252C250.426 57.8252 237.538 59.9321 234.562 62.9108C231.585 65.888 231.585 70.7111 234.561 73.6872Z" fill="#3B614B"/>
</svg>
